<?xml version="1.0" encoding="UTF-8" standalone="no"?>
<svg width="145px" height="33px" viewBox="0 0 145 33" version="1.1" xmlns="http://www.w3.org/2000/svg" xmlns:xlink="http://www.w3.org/1999/xlink" xmlns:sketch="http://www.bohemiancoding.com/sketch/ns">
    <!-- Generator: Sketch 3.3.2 (12043) - http://www.bohemiancoding.com/sketch -->
    <title>Path 31 Copy</title>
    <desc>Created with Sketch.</desc>
    <defs></defs>
    <g id="Welcome" stroke="none" stroke-width="1" fill="none" fill-rule="evenodd" sketch:type="MSPage">
        <g id="Desktop-HD-Copy" sketch:type="MSArtboardGroup" transform="translate(-143.000000, -55.000000)" fill="#FFFFFF">
            <path d="M146.52429,78.3714327 C139.629479,69.8476361 144.976818,56.8349927 144.976818,56.8349927 C144.976818,56.8349927 145.894031,58.1351818 149.487849,58.1351817 C153.081667,58.1351817 155.795799,55.4652559 155.795799,55.4652559 C155.795799,55.4652559 158.692852,58.1351817 161.830393,58.1351817 C164.967935,58.1351817 166.517974,56.8349928 166.517974,56.8349928 C166.517974,56.8349928 172.410848,69.0958443 165.15913,78.3714327 C157.907411,87.6470211 155.795799,87.4344376 155.795799,87.4344376 C155.795799,87.4344376 153.419101,86.8952293 146.52429,78.3714327 Z M148.979478,67.3675351 C149.374641,66.4773377 149.909548,65.7163739 150.584217,65.084621 C151.258885,64.452868 152.058837,63.9647025 152.984096,63.62011 C153.909355,63.2755175 154.892428,63.1032238 155.933345,63.1032238 C156.974261,63.1032238 157.957335,63.2755175 158.882594,63.62011 C159.807853,63.9647025 160.607805,64.452868 161.282473,65.084621 C161.957141,65.7163739 162.492048,66.4773377 162.887211,67.3675351 C163.282374,68.2577324 163.479952,69.2484211 163.479952,70.3396308 C163.479952,71.4308405 163.282374,72.4215292 162.887211,73.3117265 C162.512109,74.1567331 162.072393,74.7241119 161.282473,75.7468131 C160.492552,76.7695143 159.29202,78.2410157 158.213493,79.9203976 C156.781606,82.1499974 155.933345,84.1189203 155.933345,84.1189203 C155.933345,84.1189203 155.013783,82.1231127 153.60083,79.9203981 C152.499378,78.203296 151.394021,76.8658617 150.584217,75.8367505 C149.774412,74.8076392 149.374641,74.2019239 148.979478,73.3117265 C148.584315,72.4215292 148.386737,71.4308405 148.386737,70.3396308 C148.386737,69.2484211 148.584315,68.2577324 148.979478,67.3675351 Z M155.933345,74.0389197 C157.829492,74.0389197 159.366623,72.510181 159.366623,70.6243863 C159.366623,68.7385916 157.829492,67.2098529 155.933345,67.2098529 C154.037197,67.2098529 152.500066,68.7385916 152.500066,70.6243863 C152.500066,72.510181 154.037197,74.0389197 155.933345,74.0389197 Z M177.343182,60.2743437 L185.269918,60.2743437 C186.665396,60.2743437 187.923596,60.4001636 189.044554,60.6518073 C190.165512,60.9034509 191.126319,61.3152253 191.927003,61.8871427 C192.727688,62.4590602 193.345349,63.1911035 193.780006,64.0832947 C194.214664,64.9754858 194.431989,66.0506745 194.431989,67.3088928 C194.431989,68.6586179 194.180349,69.7909974 193.677062,70.7060653 C193.173774,71.6211332 192.493203,72.3588956 191.635327,72.9193746 C190.777451,73.4798537 189.77661,73.885909 188.632775,74.1375527 C187.488941,74.3891963 186.276494,74.5150163 184.995399,74.5150163 L181.666856,74.5150163 L181.666856,84.5692743 L177.343182,84.5692743 L177.343182,60.2743437 Z M184.686565,70.8776397 C185.395743,70.8776397 186.070595,70.8261679 186.711142,70.7232227 C187.35169,70.6202776 187.923599,70.4372668 188.426886,70.1741847 C188.930173,69.9111027 189.33051,69.5508002 189.627907,69.0932662 C189.925304,68.6357323 190.074,68.0409471 190.074,67.3088928 C190.074,66.5997152 189.925304,66.0220872 189.627907,65.5759917 C189.33051,65.1298961 188.935893,64.7810317 188.444044,64.529388 C187.952195,64.2777443 187.391724,64.1118908 186.762615,64.0318223 C186.133506,63.9517539 185.487249,63.9117203 184.823824,63.9117203 L181.666856,63.9117203 L181.666856,70.8776397 L184.686565,70.8776397 Z M195.961014,68.0981349 L200.078799,68.0981349 L200.078799,84.5692743 L195.961014,84.5692743 L195.961014,68.0981349 Z M195.377661,62.5048105 C195.377661,61.8413863 195.623582,61.2637583 196.115431,60.7719093 C196.60728,60.2800604 197.23066,60.0341396 197.985591,60.0341396 C198.740522,60.0341396 199.375341,60.2686222 199.890067,60.7375945 C200.404793,61.2065667 200.662152,61.7956329 200.662152,62.5048105 C200.662152,63.2139881 200.404793,63.8030542 199.890067,64.2720265 C199.375341,64.7409987 198.740522,64.9754814 197.985591,64.9754814 C197.23066,64.9754814 196.60728,64.7295606 196.115431,64.2377116 C195.623582,63.7458626 195.377661,63.1682347 195.377661,62.5048105 L195.377661,62.5048105 Z M202.470104,68.0981349 L206.382,68.0981349 L206.382,70.7403802 L206.45063,70.7403802 C206.816657,69.9168191 207.451476,69.1904948 208.355105,68.5613857 C209.258735,67.9322765 210.328204,67.6177266 211.563546,67.6177266 C212.638751,67.6177266 213.559524,67.8064566 214.325893,68.1839221 C215.092263,68.5613876 215.721362,69.0589483 216.213211,69.6766191 C216.70506,70.2942899 217.065363,71.0034569 217.29413,71.8041412 C217.522897,72.6048256 217.637279,73.4283744 217.637279,74.2748122 L217.637279,84.5692743 L213.519494,84.5692743 L213.519494,75.4415179 C213.519494,74.9611072 213.485179,74.4578274 213.416549,73.9316634 C213.347919,73.4054994 213.199223,72.930815 212.970456,72.5075962 C212.741689,72.0843773 212.427139,71.7355129 212.026797,71.4609925 C211.626455,71.1864721 211.094579,71.049214 210.431155,71.049214 C209.767731,71.049214 209.195822,71.1807531 208.715412,71.4438351 C208.235001,71.7069171 207.840384,72.0443433 207.531548,72.4561238 C207.222713,72.8679044 206.98823,73.3425887 206.828093,73.8801911 C206.667957,74.4177935 206.587889,74.9611069 206.587889,75.5101476 L206.587889,84.5692743 L202.470104,84.5692743 L202.470104,68.0981349 Z M220.028584,60.2743437 L227.95532,60.2743437 C229.350799,60.2743437 230.608998,60.4001636 231.729956,60.6518073 C232.850915,60.9034509 233.811721,61.3152253 234.612406,61.8871427 C235.41309,62.4590602 236.030752,63.1911035 236.465409,64.0832947 C236.900066,64.9754858 237.117392,66.0506745 237.117392,67.3088928 C237.117392,68.6586179 236.865752,69.7909974 236.362464,70.7060653 C235.859177,71.6211332 235.178606,72.3588956 234.320729,72.9193746 C233.462853,73.4798537 232.462013,73.885909 231.318178,74.1375527 C230.174343,74.3891963 228.961896,74.5150163 227.680801,74.5150163 L224.352259,74.5150163 L224.352259,84.5692743 L220.028584,84.5692743 L220.028584,60.2743437 Z M227.371967,70.8776397 C228.081145,70.8776397 228.755998,70.8261679 229.396545,70.7232227 C230.037093,70.6202776 230.609001,70.4372668 231.112289,70.1741847 C231.615576,69.9111027 232.015912,69.5508002 232.313309,69.0932662 C232.610706,68.6357323 232.759403,68.0409471 232.759403,67.3088928 C232.759403,66.5997152 232.610706,66.0220872 232.313309,65.5759917 C232.015912,65.1298961 231.621295,64.7810317 231.129446,64.529388 C230.637597,64.2777443 230.077126,64.1118908 229.448017,64.0318223 C228.818908,63.9517539 228.172651,63.9117203 227.509227,63.9117203 L224.352259,63.9117203 L224.352259,70.8776397 L227.371967,70.8776397 Z M235.788313,76.2650748 C235.788313,74.9611031 236.022796,73.7772518 236.491768,72.7134854 C236.96074,71.649719 237.595559,70.7403839 238.396244,69.9854529 C239.196928,69.2305219 240.146297,68.6471749 241.244378,68.2353944 C242.34246,67.8236138 243.509154,67.6177266 244.744495,67.6177266 C245.979837,67.6177266 247.146531,67.8236138 248.244612,68.2353944 C249.342694,68.6471749 250.292063,69.2305219 251.092747,69.9854529 C251.893431,70.7403839 252.52825,71.649719 252.997222,72.7134854 C253.466195,73.7772518 253.700677,74.9611031 253.700677,76.2650748 C253.700677,77.5690466 253.466195,78.7586169 252.997222,79.8338217 C252.52825,80.9090265 251.893431,81.8297997 251.092747,82.596169 C250.292063,83.3625384 249.342694,83.9630427 248.244612,84.3976999 C247.146531,84.8323571 245.979837,85.0496825 244.744495,85.0496825 C243.509154,85.0496825 242.34246,84.8323571 241.244378,84.3976999 C240.146297,83.9630427 239.196928,83.3625384 238.396244,82.596169 C237.595559,81.8297997 236.96074,80.9090265 236.491768,79.8338217 C236.022796,78.7586169 235.788313,77.5690466 235.788313,76.2650748 L235.788313,76.2650748 Z M239.974728,76.2650748 C239.974728,76.9056223 240.071952,77.5461602 240.266404,78.1867078 C240.460856,78.8272553 240.75253,79.3991641 241.141434,79.9024514 C241.530337,80.4057388 242.022179,80.8175131 242.616973,81.1377869 C243.211767,81.4580607 243.920934,81.6181951 244.744495,81.6181951 C245.568056,81.6181951 246.277223,81.4580607 246.872017,81.1377869 C247.466812,80.8175131 247.958653,80.4057388 248.347557,79.9024514 C248.736461,79.3991641 249.028134,78.8272553 249.222586,78.1867078 C249.417038,77.5461602 249.514263,76.9056223 249.514263,76.2650748 C249.514263,75.6245273 249.417038,74.9897085 249.222586,74.3605993 C249.028134,73.7314902 248.736461,73.1653004 248.347557,72.6620131 C247.958653,72.1587258 247.466812,71.7526705 246.872017,71.4438351 C246.277223,71.1349997 245.568056,70.9805843 244.744495,70.9805843 C243.920934,70.9805843 243.211767,71.1349997 242.616973,71.4438351 C242.022179,71.7526705 241.530337,72.1587258 241.141434,72.6620131 C240.75253,73.1653004 240.460856,73.7314902 240.266404,74.3605993 C240.071952,74.9897085 239.974728,75.6245273 239.974728,76.2650748 L239.974728,76.2650748 Z M255.131167,68.0981349 L259.248952,68.0981349 L259.248952,84.5692743 L255.131167,84.5692743 L255.131167,68.0981349 Z M254.547814,62.5048105 C254.547814,61.8413863 254.793735,61.2637583 255.285584,60.7719093 C255.777433,60.2800604 256.400813,60.0341396 257.155744,60.0341396 C257.910675,60.0341396 258.545494,60.2686222 259.06022,60.7375945 C259.574945,61.2065667 259.832304,61.7956329 259.832304,62.5048105 C259.832304,63.2139881 259.574945,63.8030542 259.06022,64.2720265 C258.545494,64.7409987 257.910675,64.9754814 257.155744,64.9754814 C256.400813,64.9754814 255.777433,64.7295606 255.285584,64.2377116 C254.793735,63.7458626 254.547814,63.1682347 254.547814,62.5048105 L254.547814,62.5048105 Z M261.640257,68.0981349 L265.552153,68.0981349 L265.552153,70.7403802 L265.620783,70.7403802 C265.98681,69.9168191 266.621629,69.1904948 267.525258,68.5613857 C268.428888,67.9322765 269.498357,67.6177266 270.733699,67.6177266 C271.808904,67.6177266 272.729677,67.8064566 273.496046,68.1839221 C274.262416,68.5613876 274.891515,69.0589483 275.383364,69.6766191 C275.875213,70.2942899 276.235516,71.0034569 276.464283,71.8041412 C276.69305,72.6048256 276.807432,73.4283744 276.807432,74.2748122 L276.807432,84.5692743 L272.689647,84.5692743 L272.689647,75.4415179 C272.689647,74.9611072 272.655332,74.4578274 272.586702,73.9316634 C272.518072,73.4054994 272.369376,72.930815 272.140609,72.5075962 C271.911842,72.0843773 271.597292,71.7355129 271.19695,71.4609925 C270.796607,71.1864721 270.264732,71.049214 269.601308,71.049214 C268.937884,71.049214 268.365975,71.1807531 267.885564,71.4438351 C267.405154,71.7069171 267.010537,72.0443433 266.701701,72.4561238 C266.392866,72.8679044 266.158383,73.3425887 265.998246,73.8801911 C265.838109,74.4177935 265.758042,74.9611069 265.758042,75.5101476 L265.758042,84.5692743 L261.640257,84.5692743 L261.640257,68.0981349 Z M276.625122,71.3923628 L276.625122,68.0981349 L279.507571,68.0981349 L279.507571,63.3283674 L283.556726,63.3283674 L283.556726,68.0981349 L287.674511,68.0981349 L287.674511,71.3923628 L283.556726,71.3923628 L283.556726,79.0445796 C283.556726,79.7766339 283.688265,80.3828573 283.951347,80.8632679 C284.214429,81.3436785 284.803495,81.5838803 285.718563,81.5838803 C285.993084,81.5838803 286.290476,81.5552848 286.61075,81.4980931 C286.931024,81.4409013 287.216978,81.355115 287.468622,81.2407315 L287.605881,84.4663297 C287.239854,84.6035898 286.805204,84.7122525 286.301916,84.792321 C285.798629,84.8723894 285.318225,84.912423 284.860692,84.912423 C283.76261,84.912423 282.870432,84.7580076 282.184131,84.4491722 C281.49783,84.1403368 280.954517,83.7171243 280.554175,83.1795219 C280.153833,82.6419195 279.879316,82.024258 279.730618,81.3265187 C279.581919,80.6287795 279.507571,79.8795789 279.507571,79.0788945 L279.507571,71.3923628 L276.625122,71.3923628 Z" id="Path-31-Copy" sketch:type="MSShapeGroup"></path>
        </g>
    </g>
</svg>